<svg width="211" height="84" viewBox="0 0 211 84" fill="none" xmlns="http://www.w3.org/2000/svg">
<path d="M187.302 36.3701V53.1151C187.302 54.2201 187.387 54.3901 188.322 54.9851L195.377 59.8301V60.0001H167.412V59.8301L174.552 54.9851C175.402 54.3901 175.487 54.2201 175.487 53.1151V37.5601C175.487 36.4551 175.402 36.0301 174.892 35.1801L160.357 8.23512C159.592 6.79011 158.912 6.02511 158.062 5.09012L153.727 0.415115V0.245117H178.717V0.415115L173.447 5.43012C172.767 6.11012 172.682 6.36511 173.107 7.21511L186.452 32.5451L197.587 10.7851C198.182 9.59511 198.012 9.25512 197.332 8.49012L190.022 0.415115V0.245117H210.252V0.415115L201.752 8.32012C200.392 9.51011 199.967 10.0201 199.117 11.5501L187.982 33.2251C187.387 34.3301 187.302 34.8401 187.302 36.3701Z" fill="#202020"/>
<path d="M154.402 51.9251C154.912 53.3701 155.422 54.3051 156.272 55.3251L159.842 59.8301V60.0001H136.892V59.8301L141.992 54.7301C142.587 54.1351 142.672 53.6251 142.332 52.5201L137.912 39.0901H118.447L115.217 48.8651C114.792 50.0551 114.962 50.3951 115.897 51.4151L123.632 59.8301V60.0001H104.082V59.8301L111.477 51.7551C112.837 50.2251 113.092 49.8851 113.602 48.4401L126.692 8.91512C127.287 7.21511 127.117 6.96012 126.097 5.85512L121.252 0.415115V0.245117H137.487L154.402 51.9251ZM128.307 9.51011L118.957 37.4751H137.402L128.307 9.51011Z" fill="#202020"/>
<path d="M102.942 60.0001H58.7422V59.8301L65.2872 55.2401C66.1372 54.6451 66.2222 54.3901 66.2222 53.3701V6.87512C66.2222 5.85512 66.1372 5.60011 65.2872 5.00512L58.7422 0.415115V0.245117H85.6022V0.415115L79.0572 5.00512C78.1222 5.68511 78.0372 5.85512 78.0372 6.87512V56.6001C78.0372 58.1301 78.2922 58.3851 79.3972 58.3851H90.3622C91.9772 58.3851 92.5722 58.2151 93.0822 57.2801L102.772 39.6001H102.942V60.0001Z" fill="#202020"/>
<path d="M33.2003 37.2201H26.7403V52.5201C26.7403 53.8801 26.7403 54.3051 27.6753 54.9001L37.1103 59.8301V60.0001H7.44531V59.8301L13.9903 55.2401C14.8403 54.6451 14.9253 54.3901 14.9253 53.3701V6.87512C14.9253 5.85512 14.8403 5.60011 13.9903 5.00512L7.44531 0.415115V0.245117H34.8153C46.6303 0.245117 56.5753 5.17511 56.5753 18.3501C56.5753 30.8451 46.4603 37.2201 33.2003 37.2201ZM26.7403 3.56012V35.6051H31.6703C38.3853 35.6051 43.9953 30.5051 43.9953 18.5201C43.9953 7.30012 39.0653 1.86012 32.0953 1.86012H28.3553C27.0803 1.86012 26.7403 2.20012 26.7403 3.56012Z" fill="#202020"/>
<path d="M204.168 76.2763C204.168 74.7643 203.874 73.9943 203.02 73.9943C202.446 73.9943 202.04 74.3443 201.746 74.8483V79.0623C201.746 79.2163 201.76 79.2583 201.9 79.3703L202.726 79.9723V80.0003H199.016V79.9723L199.842 79.3703C199.968 79.2723 199.982 79.2163 199.982 79.0623V74.1903C199.982 74.0083 199.968 73.9663 199.842 73.8683L199.016 73.1683V73.1403H201.746V74.7363C202.082 73.6163 202.81 73.0283 203.888 73.0283C205.204 73.0283 205.932 73.9523 205.932 75.8843C205.932 76.6543 205.918 77.9423 205.904 79.0623C205.904 79.2303 205.932 79.2723 206.058 79.3703L206.884 79.9723V80.0003H203.174V79.9723L203.958 79.3703C204.098 79.2723 204.126 79.2023 204.126 79.0763C204.126 78.9223 204.168 76.8923 204.168 76.2763Z" fill="#202020"/>
<path d="M195.104 73.2523C194.264 73.2523 193.732 73.9943 193.732 76.5563C193.732 79.1183 194.264 79.8883 195.104 79.8883C195.944 79.8883 196.49 79.1323 196.49 76.5703C196.49 74.0083 195.944 73.2523 195.104 73.2523ZM195.104 80.1123C193.074 80.1123 191.73 78.8663 191.73 76.5563C191.73 74.2603 193.074 73.0283 195.104 73.0283C197.148 73.0283 198.478 74.2463 198.478 76.5703C198.478 78.8663 197.148 80.1123 195.104 80.1123Z" fill="#202020"/>
<path d="M189.337 72.2162C188.805 72.2162 188.371 71.8242 188.371 71.2922C188.371 70.7182 188.805 70.3262 189.337 70.3262C189.883 70.3262 190.317 70.7182 190.317 71.2922C190.317 71.8242 189.883 72.2162 189.337 72.2162ZM187.559 73.1402H190.289V79.0622C190.289 79.2162 190.303 79.2582 190.443 79.3702L191.269 79.9722V80.0002H187.559V79.9722L188.385 79.3702C188.511 79.2722 188.525 79.2162 188.525 79.0622V74.1902C188.525 74.0082 188.511 73.9662 188.385 73.8682L187.559 73.1682V73.1402Z" fill="#202020"/>
<path d="M185.455 73.3921V78.2221C185.455 78.8521 185.735 79.2161 186.225 79.2161C186.673 79.2161 187.037 78.8941 187.191 78.5301L187.219 78.5441C187.079 79.3421 186.533 80.1121 185.329 80.1121C184.265 80.1121 183.691 79.5381 183.691 78.3761V73.3921H182.809V73.1401H183.523C183.719 73.1401 183.775 73.1121 183.901 72.9581L185.427 70.8301H185.455V73.1401H187.317V73.3921H185.455Z" fill="#202020"/>
<path d="M180.116 76.5563L180.144 75.0583V75.0023C180.144 73.9803 179.738 73.2663 178.856 73.2663C178.548 73.2663 178.52 73.2803 178.436 73.4483L177.456 75.4223H177.428L176.686 73.5183C177.54 73.1823 178.408 73.0283 179.248 73.0283C180.13 73.0283 180.76 73.1683 181.208 73.6023C181.614 74.0223 181.866 74.7083 181.866 75.8563V76.1083L181.782 78.3343C181.754 78.9223 181.908 79.2163 182.244 79.2163C182.454 79.2163 182.594 79.0903 182.664 78.8803H182.692C182.706 79.0343 182.664 79.2023 182.594 79.3563C182.412 79.7763 181.992 80.1123 181.39 80.1123C180.69 80.1123 180.116 79.6503 180.102 78.6843C179.822 79.5663 179.094 80.1123 178.198 80.1123C177.204 80.1123 176.336 79.4403 176.336 78.2223C176.336 76.8363 177.512 76.1363 178.646 76.1363C179.178 76.1363 179.724 76.2623 180.116 76.5563ZM179.43 76.5423C178.548 76.5423 178.072 77.2143 178.072 78.0123C178.072 78.7683 178.492 79.2163 179.038 79.2163C179.444 79.2163 179.836 78.9643 180.088 78.5583L180.116 76.6543C179.892 76.5703 179.654 76.5423 179.43 76.5423Z" fill="#202020"/>
<path d="M173.226 75.2683V78.9503C173.226 79.1043 173.24 79.1743 173.422 79.2723L174.864 79.9723V80.0003H170.496V79.9723L171.322 79.3703C171.448 79.2723 171.462 79.2163 171.462 79.0623V74.1903C171.462 74.0083 171.448 73.9663 171.322 73.8683L170.496 73.1683V73.1403H173.226V75.1143C173.436 74.1343 174.108 73.0283 175.256 73.0283C175.592 73.0283 175.858 73.1403 176.068 73.3223L175.326 75.4503H175.298L174.416 74.0083C174.36 73.9383 174.304 73.9383 174.234 73.9663C173.73 74.1903 173.492 74.7363 173.226 75.2683Z" fill="#202020"/>
<path d="M166.436 73.2523C165.596 73.2523 165.064 73.9943 165.064 76.5563C165.064 79.1183 165.596 79.8883 166.436 79.8883C167.276 79.8883 167.822 79.1323 167.822 76.5703C167.822 74.0083 167.276 73.2523 166.436 73.2523ZM166.436 80.1123C164.406 80.1123 163.062 78.8663 163.062 76.5563C163.062 74.2603 164.406 73.0283 166.436 73.0283C168.48 73.0283 169.811 74.2463 169.811 76.5703C169.811 78.8663 168.48 80.1123 166.436 80.1123Z" fill="#202020"/>
<path d="M161.671 69.8359V79.0619C161.671 79.2159 161.685 79.2579 161.825 79.3699L162.651 79.9719V79.9999H158.941V79.9719L159.767 79.3699C159.893 79.2719 159.907 79.2159 159.907 79.0619V71.1099C159.907 70.9279 159.893 70.8859 159.767 70.7879L158.941 70.1859V70.1579L161.671 69.8359Z" fill="#202020"/>
<path d="M152.044 82.2543V74.1903C152.044 74.0083 152.03 73.9663 151.904 73.8683L151.078 73.1683V73.1403H153.808V74.6663C154.284 73.5183 154.984 73.0283 155.95 73.0283C157.49 73.0283 158.456 74.3723 158.456 76.3883C158.456 78.6703 157.294 80.1123 155.656 80.1123C154.648 80.1123 154.088 79.6643 153.808 79.0203V82.1703C153.808 82.3523 153.836 82.3943 154.018 82.4923L155.18 83.1643V83.1923H151.078V83.1643L151.904 82.5623C152.03 82.4643 152.044 82.4083 152.044 82.2543ZM155.11 73.9103C154.578 73.9103 154.116 74.2743 153.808 74.8063V78.9223C154.074 79.2443 154.466 79.4403 154.97 79.4403C155.894 79.4403 156.566 78.5023 156.566 76.4863C156.566 74.8483 156.006 73.9103 155.11 73.9103Z" fill="#202020"/>
<path d="M146.905 77.0596L144.973 74.2177C144.819 73.9797 144.707 73.8536 144.525 73.6856L143.965 73.1676V73.1396H147.535V73.1676L146.835 73.7416C146.709 73.8396 146.723 73.8956 146.835 74.0636L148.011 75.7997L149.033 74.4697C149.173 74.2877 149.173 74.2596 149.047 74.0916L148.291 73.1676V73.1396H150.979V73.1676L149.677 74.1897C149.467 74.3437 149.355 74.4556 149.173 74.6936L148.151 76.0097L150.139 78.9216C150.307 79.1596 150.405 79.2577 150.573 79.4257L151.133 79.9716V79.9996H147.563V79.9716L148.277 79.3837C148.403 79.2857 148.375 79.2156 148.263 79.0616L147.045 77.2696L145.981 78.6556C145.827 78.8516 145.841 78.8796 145.967 79.0476L146.723 79.9716V79.9996H144.035V79.9716L145.337 78.9496C145.547 78.7816 145.645 78.6696 145.841 78.4316L146.905 77.0596Z" fill="#202020"/>
<path d="M143.421 80.0002H135.973V79.9722L137.051 79.2162C137.191 79.1182 137.205 79.0762 137.205 78.9082V71.2502C137.205 71.0822 137.191 71.0402 137.051 70.9422L135.973 70.1862V70.1582H143.295V73.3502H143.267L141.797 70.6622C141.685 70.4522 141.601 70.4242 141.405 70.4242H139.375C139.193 70.4242 139.151 70.4662 139.151 70.7182V74.8902H140.523C140.705 74.8762 140.761 74.8342 140.901 74.6522L141.965 73.3082H141.993V76.7242H141.965L140.901 75.3662C140.761 75.1982 140.705 75.1422 140.509 75.1422H139.151V79.4402C139.151 79.6922 139.193 79.7342 139.375 79.7342H141.475C141.741 79.7342 141.825 79.7062 141.923 79.5522L143.393 76.8082H143.421V80.0002Z" fill="#202020"/>
<path d="M131.467 71.2502V78.9082C131.467 79.0762 131.481 79.1182 131.635 79.2162L132.713 79.9722V80.0002H128.289V79.9722L129.367 79.2162C129.507 79.1182 129.521 79.0762 129.521 78.9082V71.2502C129.521 71.0822 129.507 71.0402 129.367 70.9422L128.289 70.1862V70.1582H132.713V70.1862L131.635 70.9422C131.481 71.0542 131.467 71.0822 131.467 71.2502Z" fill="#202020"/>
<path d="M127.19 78.6702C127.274 78.9082 127.358 79.0622 127.498 79.2302L128.086 79.9722V80.0002H124.306V79.9722L125.146 79.1322C125.244 79.0342 125.258 78.9502 125.202 78.7682L124.474 76.5562H121.268L120.736 78.1662C120.666 78.3622 120.694 78.4182 120.848 78.5862L122.122 79.9722V80.0002H118.902V79.9722L120.12 78.6422C120.344 78.3902 120.386 78.3342 120.47 78.0962L122.626 71.5862C122.724 71.3062 122.696 71.2642 122.528 71.0822L121.73 70.1862V70.1582H124.404L127.19 78.6702ZM122.892 71.6842L121.352 76.2902H124.39L122.892 71.6842Z" fill="#202020"/>
<path d="M114.513 73.3921V78.2221C114.513 78.8521 114.793 79.2161 115.283 79.2161C115.731 79.2161 116.095 78.8941 116.249 78.5301L116.277 78.5441C116.137 79.3421 115.591 80.1121 114.387 80.1121C113.323 80.1121 112.749 79.5381 112.749 78.3761V73.3921H111.867V73.1401H112.581C112.777 73.1401 112.833 73.1121 112.959 72.9581L114.485 70.8301H114.513V73.1401H116.375V73.3921H114.513Z" fill="#202020"/>
<path d="M110.001 73.3921V78.2221C110.001 78.8521 110.281 79.2161 110.771 79.2161C111.219 79.2161 111.583 78.8941 111.737 78.5301L111.765 78.5441C111.625 79.3421 111.079 80.1121 109.875 80.1121C108.811 80.1121 108.237 79.5381 108.237 78.3761V73.3921H107.355V73.1401H108.069C108.265 73.1401 108.321 73.1121 108.447 72.9581L109.973 70.8301H110.001V73.1401H111.863V73.3921H110.001Z" fill="#202020"/>
<path d="M103.53 73.2523C102.69 73.2523 102.158 73.9943 102.158 76.5563C102.158 79.1183 102.69 79.8883 103.53 79.8883C104.37 79.8883 104.916 79.1323 104.916 76.5703C104.916 74.0083 104.37 73.2523 103.53 73.2523ZM103.53 80.1123C101.5 80.1123 100.156 78.8663 100.156 76.5563C100.156 74.2603 101.5 73.0283 103.53 73.0283C105.574 73.0283 106.904 74.2463 106.904 76.5703C106.904 78.8663 105.574 80.1123 103.53 80.1123Z" fill="#202020"/>
<path d="M96.8092 80.1123C95.2692 80.1123 93.7852 79.0483 93.7852 76.6403C93.7852 73.9803 95.5492 73.0283 97.2572 73.0283C97.8732 73.0283 98.6152 73.1263 99.4412 73.4203L98.6852 75.6323H98.6572L97.7192 73.4343C97.6492 73.3083 97.6072 73.2523 97.4532 73.2523H97.3132C96.2072 73.2523 95.6332 74.2603 95.6332 76.0943C95.6332 78.2783 96.5572 79.0763 97.5932 79.0763C98.3772 79.0763 99.0212 78.6423 99.4552 77.6903H99.4832C99.2312 79.1323 98.3632 80.1123 96.8092 80.1123Z" fill="#202020"/>
<path d="M90.6637 76.2763C90.6637 74.7643 90.3697 73.9943 89.5157 73.9943C88.9417 73.9943 88.5357 74.3443 88.2417 74.8483V79.0623C88.2417 79.2163 88.2557 79.2583 88.3957 79.3703L89.2217 79.9723V80.0003H85.5117V79.9723L86.3377 79.3703C86.4637 79.2723 86.4777 79.2163 86.4777 79.0623V74.1903C86.4777 74.0083 86.4637 73.9663 86.3377 73.8683L85.5117 73.1683V73.1403H88.2417V74.7363C88.5777 73.6163 89.3057 73.0283 90.3837 73.0283C91.6997 73.0283 92.4277 73.9523 92.4277 75.8843C92.4277 76.6543 92.4137 77.9423 92.3997 79.0623C92.3997 79.2303 92.4277 79.2723 92.5537 79.3703L93.3797 79.9723V80.0003H89.6697V79.9723L90.4537 79.3703C90.5937 79.2723 90.6217 79.2023 90.6217 79.0763C90.6217 78.9223 90.6637 76.8923 90.6637 76.2763Z" fill="#202020"/>
<path d="M83.1491 72.2162C82.6171 72.2162 82.1831 71.8242 82.1831 71.2922C82.1831 70.7182 82.6171 70.3262 83.1491 70.3262C83.6951 70.3262 84.1291 70.7182 84.1291 71.2922C84.1291 71.8242 83.6951 72.2162 83.1491 72.2162ZM81.3711 73.1402H84.1011V79.0622C84.1011 79.2162 84.1151 79.2582 84.2551 79.3702L85.0811 79.9722V80.0002H81.3711V79.9722L82.1971 79.3702C82.3231 79.2722 82.3371 79.2162 82.3371 79.0622V74.1902C82.3371 74.0082 82.3231 73.9662 82.1971 73.8682L81.3711 73.1682V73.1402Z" fill="#202020"/>
<path d="M74.3215 82.2543V74.1903C74.3215 74.0083 74.3075 73.9663 74.1815 73.8683L73.3555 73.1683V73.1403H76.0855V74.6663C76.5615 73.5183 77.2615 73.0283 78.2275 73.0283C79.7675 73.0283 80.7335 74.3723 80.7335 76.3883C80.7335 78.6703 79.5715 80.1123 77.9335 80.1123C76.9255 80.1123 76.3655 79.6643 76.0855 79.0203V82.1703C76.0855 82.3523 76.1135 82.3943 76.2955 82.4923L77.4575 83.1643V83.1923H73.3555V83.1643L74.1815 82.5623C74.3075 82.4643 74.3215 82.4083 74.3215 82.2543ZM77.3875 73.9103C76.8555 73.9103 76.3935 74.2743 76.0855 74.8063V78.9223C76.3515 79.2443 76.7435 79.4403 77.2475 79.4403C78.1715 79.4403 78.8435 78.5023 78.8435 76.4863C78.8435 74.8483 78.2835 73.9103 77.3875 73.9103Z" fill="#202020"/>
<path d="M66.5558 82.2543V74.1903C66.5558 74.0083 66.5418 73.9663 66.4158 73.8683L65.5898 73.1683V73.1403H68.3198V74.6663C68.7958 73.5183 69.4958 73.0283 70.4618 73.0283C72.0018 73.0283 72.9678 74.3723 72.9678 76.3883C72.9678 78.6703 71.8058 80.1123 70.1678 80.1123C69.1598 80.1123 68.5998 79.6643 68.3198 79.0203V82.1703C68.3198 82.3523 68.3478 82.3943 68.5298 82.4923L69.6918 83.1643V83.1923H65.5898V83.1643L66.4158 82.5623C66.5418 82.4643 66.5558 82.4083 66.5558 82.2543ZM69.6218 73.9103C69.0898 73.9103 68.6278 74.2743 68.3198 74.8063V78.9223C68.5858 79.2443 68.9778 79.4403 69.4818 79.4403C70.4058 79.4403 71.0778 78.5023 71.0778 76.4863C71.0778 74.8483 70.5178 73.9103 69.6218 73.9103Z" fill="#202020"/>
<path d="M63.4186 72.2162C62.8866 72.2162 62.4526 71.8242 62.4526 71.2922C62.4526 70.7182 62.8866 70.3262 63.4186 70.3262C63.9646 70.3262 64.3986 70.7182 64.3986 71.2922C64.3986 71.8242 63.9646 72.2162 63.4186 72.2162ZM61.6406 73.1402H64.3706V79.0622C64.3706 79.2162 64.3846 79.2582 64.5246 79.3702L65.3506 79.9722V80.0002H61.6406V79.9722L62.4666 79.3702C62.5926 79.2722 62.6066 79.2162 62.6066 79.0622V74.1902C62.6066 74.0082 62.5926 73.9662 62.4666 73.8682L61.6406 73.1682V73.1402Z" fill="#202020"/>
<path d="M60.9089 80.0002H53.6289V79.9722L54.7069 79.2162C54.8469 79.1182 54.8609 79.0762 54.8609 78.9082V71.2502C54.8609 71.0822 54.8469 71.0402 54.7069 70.9422L53.6289 70.1862V70.1582H58.0529V70.1862L56.9749 70.9422C56.8209 71.0542 56.8069 71.0822 56.8069 71.2502V79.4402C56.8069 79.6922 56.8489 79.7342 57.0309 79.7342H58.8369C59.1029 79.7342 59.2009 79.7062 59.2849 79.5522L60.8809 76.6402H60.9089V80.0002Z" fill="#202020"/>
<path d="M47.8706 75.2683V78.9503C47.8706 79.1043 47.8846 79.1743 48.0666 79.2723L49.5086 79.9723V80.0003H45.1406V79.9723L45.9666 79.3703C46.0926 79.2723 46.1066 79.2163 46.1066 79.0623V74.1903C46.1066 74.0083 46.0926 73.9663 45.9666 73.8683L45.1406 73.1683V73.1403H47.8706V75.1143C48.0806 74.1343 48.7526 73.0283 49.9006 73.0283C50.2366 73.0283 50.5026 73.1403 50.7126 73.3223L49.9706 75.4503H49.9426L49.0606 74.0083C49.0046 73.9383 48.9486 73.9383 48.8786 73.9663C48.3746 74.1903 48.1366 74.7363 47.8706 75.2683Z" fill="#202020"/>
<path d="M44.5021 76.1083H40.3021V76.3323C40.3021 78.1943 41.1981 79.0903 42.3181 79.0903C43.2141 79.0903 44.0121 78.6703 44.4881 77.5643H44.5161C44.1941 79.2863 43.1721 80.1123 41.6321 80.1123C40.0081 80.1123 38.4961 79.0483 38.4961 76.6263C38.4961 73.9943 40.1341 73.0283 41.7021 73.0283C43.1161 73.0283 44.5301 73.7703 44.5301 75.7583C44.5301 75.8843 44.5161 75.9963 44.5021 76.1083ZM41.6741 73.2523C40.8481 73.2523 40.3721 74.1343 40.3021 75.8563H42.8081C42.8221 75.7443 42.8221 75.6463 42.8221 75.5903C42.8221 73.9943 42.4441 73.2523 41.6741 73.2523Z" fill="#202020"/>
<path d="M37.095 79.0619C37.095 79.2299 37.123 79.2719 37.249 79.3699L38.089 79.9719V79.9999H34.365V79.9719L35.163 79.3699C35.289 79.2719 35.317 79.2019 35.317 79.0759C35.317 78.9219 35.359 76.8919 35.359 76.2759C35.359 74.7639 35.065 73.9939 34.211 73.9939C33.651 73.9939 33.231 74.3439 32.937 74.8479V79.0619C32.937 79.2159 32.951 79.2579 33.091 79.3699L33.917 79.9719V79.9999H30.207V79.9719L31.033 79.3699C31.159 79.2719 31.173 79.2159 31.173 79.0619V71.1099C31.173 70.9279 31.159 70.8859 31.033 70.7879L30.207 70.1859V70.1579L32.937 69.8359V74.7359C33.273 73.6159 34.001 73.0279 35.079 73.0279C36.395 73.0279 37.123 73.9519 37.123 75.8839C37.123 76.6539 37.109 77.9419 37.095 79.0619Z" fill="#202020"/>
<path d="M28.2983 73.3921V78.2221C28.2983 78.8521 28.5783 79.2161 29.0683 79.2161C29.5163 79.2161 29.8803 78.8941 30.0343 78.5301L30.0623 78.5441C29.9223 79.3421 29.3763 80.1121 28.1723 80.1121C27.1083 80.1121 26.5343 79.5381 26.5343 78.3761V73.3921H25.6523V73.1401H26.3663C26.5623 73.1401 26.6183 73.1121 26.7443 72.9581L28.2703 70.8301H28.2983V73.1401H30.1603V73.3921H28.2983Z" fill="#202020"/>
<path d="M21.8271 73.2523C20.9871 73.2523 20.4551 73.9943 20.4551 76.5563C20.4551 79.1183 20.9871 79.8883 21.8271 79.8883C22.6671 79.8883 23.2131 79.1323 23.2131 76.5703C23.2131 74.0083 22.6671 73.2523 21.8271 73.2523ZM21.8271 80.1123C19.7971 80.1123 18.4531 78.8663 18.4531 76.5563C18.4531 74.2603 19.7971 73.0283 21.8271 73.0283C23.8711 73.0283 25.2011 74.2463 25.2011 76.5703C25.2011 78.8663 23.8711 80.1123 21.8271 80.1123Z" fill="#202020"/>
<path d="M15.3747 76.2763C15.3747 74.7643 15.0807 73.9943 14.2267 73.9943C13.6527 73.9943 13.2467 74.3443 12.9527 74.8483V79.0623C12.9527 79.2163 12.9667 79.2583 13.1067 79.3703L13.9327 79.9723V80.0003H10.2227V79.9723L11.0487 79.3703C11.1747 79.2723 11.1887 79.2163 11.1887 79.0623V74.1903C11.1887 74.0083 11.1747 73.9663 11.0487 73.8683L10.2227 73.1683V73.1403H12.9527V74.7363C13.2887 73.6163 14.0167 73.0283 15.0947 73.0283C16.4107 73.0283 17.1387 73.9523 17.1387 75.8843C17.1387 76.6543 17.1247 77.9423 17.1107 79.0623C17.1107 79.2303 17.1387 79.2723 17.2647 79.3703L18.0907 79.9723V80.0003H14.3807V79.9723L15.1647 79.3703C15.3047 79.2723 15.3327 79.2023 15.3327 79.0763C15.3327 78.9223 15.3747 76.8923 15.3747 76.2763Z" fill="#202020"/>
<path d="M9.04972 78.6702C9.13372 78.9082 9.21772 79.0622 9.35772 79.2302L9.94572 79.9722V80.0002H6.16572V79.9722L7.00572 79.1322C7.10372 79.0342 7.11772 78.9502 7.06172 78.7682L6.33372 76.5562H3.12772L2.59572 78.1662C2.52572 78.3622 2.55372 78.4182 2.70772 78.5862L3.98172 79.9722V80.0002H0.761719V79.9722L1.97972 78.6422C2.20372 78.3902 2.24572 78.3342 2.32972 78.0962L4.48572 71.5862C4.58372 71.3062 4.55572 71.2642 4.38772 71.0822L3.58972 70.1862V70.1582H6.26372L9.04972 78.6702ZM4.75172 71.6842L3.21172 76.2902H6.24972L4.75172 71.6842Z" fill="#202020"/>
</svg>
